<?xml version="1.0" encoding="UTF-8"?><svg id="Group_1900" xmlns="http://www.w3.org/2000/svg" width="4.32mm" height="4.32mm" viewBox="0 0 12.25 12.25"><defs><style>.cls-1{fill:none;}.cls-1,.cls-2{stroke-width:0px;}.cls-2{fill:#fff;}</style></defs><circle class="cls-1" cx="5" cy="5" r="5"/><circle class="cls-1" cx="5" cy="5" r="3.5"/><path class="cls-2" d="m12.05,10.99l-2.93-3.17c.55-.8.88-1.77.88-2.82C10,2.24,7.76,0,5,0S0,2.24,0,5s2.24,5,5,5c1.17,0,2.23-.42,3.08-1.1l2.87,3.1c.15.16.35.24.55.24.18,0,.36-.07.51-.2.3-.28.32-.75.04-1.06Zm-7.05-2.49c-1.93,0-3.5-1.57-3.5-3.5s1.57-3.5,3.5-3.5,3.5,1.57,3.5,3.5-1.57,3.5-3.5,3.5Z"/></svg>